<?xml version="1.0" encoding="UTF-8"?>
<svg id="Layer_1" data-name="Layer 1" xmlns="http://www.w3.org/2000/svg" viewBox="196 627 1608 746">
  <defs>
    <style>
      .cls-1 {
        fill: #f18e31;
      }

      .cls-2 {
        fill: #fdfdfd;
      }
    </style>
  </defs>
  <g>
    <circle class="cls-1" cx="1478.72" cy="1318.17" r="32.47"/>
    <path class="cls-2" d="M582.2,839.51c-16.68-36.87-69.83-46.55-104.8-33.79-27.29,9.95-33.05,40.46-4.6,53.68,47.43,22.04,151.98,11.81,163.02,82.8,18.6,119.62-179.15,124.93-239.7,60.78-3.45-3.66-18.97-24.21-16.28-27.97l47.71-23.21c2.74-.23,10.16,12.86,12.98,16.11,23.95,27.56,83.54,37.79,115.17,20.35,24.28-13.39,23.04-43.45-2.13-55.6-48.49-23.41-165.2-11.39-162.89-95.34,2.81-102.37,193.4-106.33,235.59-34.93,2.22,3.76,6.71,9.15,1.51,12.12l-45.58,24.99Z"/>
    <path class="cls-2" d="M953.91,828.68l-53.52,23.16c-14.07-28.64-39.49-47.09-71.75-49.56-126.46-9.69-130.08,186.3-13.96,192.88,35.83,2.03,68.68-13.24,85.76-45.23l52.74,26.56c-42.18,79.82-174.78,86.11-238.89,31.93-70.05-59.19-62.75-187.44,18.66-233.43,68.85-38.89,187.16-26.55,220.96,53.68Z"/>
    <path class="cls-2" d="M1783.24,899.56c-1.96-100.22-74.96-158.11-173.36-143.79-151.5,22.03-163.14,237.27-21.85,279.78,53.52,16.11,125.38,8.6,168.75-28.67,1.93-1.69,13.7-13.18,13.9-14.15.48-2.1-10.05-8.92-12.53-10.64-3.89-2.75-31.25-21.51-33.14-21.03-31.32,37.03-93.2,45.6-133.68,18.28-22.78-15.42-34.11-39.68-36.86-66.63h227.15c0-4.54,1.72-8.43,1.62-13.15ZM1556.05,875.36c3.55-42.09,36.34-72.1,78.47-73.17,47.25-1.24,78.2,27.26,84.87,73.17h-163.34Z"/>
    <path class="cls-2" d="M1111.33,1242.49l.07-173.57h-56.03c-4.13,66.63,15.28,150.64-31.15,206.13-19.62,23.44-54.34,36.41-72.14,3.75-17.73-32.52-12.87-112.27-8.54-149.78,1.96-16.83,5.92-33.56,9.09-50.18l-1.48-4.47-49.87-14.04c-15.97,32.35-42.23,60.33-75.24,75.41-23.99-46.77-70-80.54-124.69-76.2-29.87,2.41-51.66,21.58-53.66,52.14-4.51,69.11,78.47,93.03,133.85,89.52v25.68c0,31.25-31.73,67.87-62.23,74.68-89.66,20.07-123.76-88.62-86.42-154.88,2.24-3.96,10.77-12.6,9.95-15.9l-27.74-42.44c-2.24-1.48-8.85,4.61-10.77,6.43-55.86,53.14-59.2,158.42-7.19,215.35,53.35,58.3,157.22,57.13,208.53-3.13,28.84-33.83,35.31-74.82,34.21-118.29,16.38-8.02,31.9-17.24,46.67-27.98-5.89,70.76-8.33,202.86,96.3,191.22,26.09-2.89,50.11-21.79,64.46-42.92,6.5-9.64,9.91-21.54,17.38-30.05,5.68,42.64,37.17,76.79,82.46,73.14v-52.9c-31.56,4.75-32.28-34.93-35.83-56.72ZM763.86,1151.29c-16.66-.86-54.24-8.33-61.78-25.43-3.79-8.6.07-14.59,9.05-16.11,15.87-2.72,38.89,13.35,48.6,25.33,1.41,1.76,9.33,13.11,9.33,14.01-.07,1.75-3.34,2.31-5.2,2.2Z"/>
    <path class="cls-2" d="M1462.67,978.06c-21.27,1.96-40.61-8.74-54.41-24.16-3.24-3.61-13.84-17.83-14.08-21.86-.21-3.96,13.49-18.58,16.86-23.51,37.55-54.59,72.14-157.77,46.6-221.82-20.48-51.28-83.08-51.94-112.92-7.85-40.78,60.23-38.03,161.79-20.41,229.74-4.44,6.43-27.26,4.64-28.98,7.12l-5.37,59.23h27.22c4.96,0,26.43-9.57,27.88-9.22,21.99,35.52,51.01,64.05,93.92,71,5.09.83,27.98,4.58,29.7-.55l-6.02-58.13ZM1372.43,854.37c-2.51-37.48-3.1-76.34,6.99-112.82,1.86-6.75,12.36-38.38,21.61-35.66,11.19,15.66,7.88,42.37,5.2,60.92-4.54,31.15-16.45,60.57-30.7,88.32l-3.1-.76Z"/>
    <path class="cls-2" d="M471.24,1115.53c-82.22-25.5-110.14,111.89-141.18,160.83-3.27,5.16-12.05,18.14-18.24,9.46-2.31-3.17-8.6-24.13-7.71-27.5.55-2.07,17.45-20.2,20.65-24.61,39.24-54.14,75.3-161.83,54.62-227.05-16.04-50.46-72.48-51.59-99.12-8.81-27.29,43.85-37.52,149.44-35.55,201.07.31,7.81,4.75,31.46,3.2,36.96-1.38,4.92-22.47,9.19-27.36,10.33l-3.79,53c14.46.24,28.26-3.99,41.96-7.74,8.78,32.35,29.36,63.4,67.39,55.58,45.71-9.36,76.89-116.92,100.05-155.08,20.37-33.56,35.28-30.32,38.07,9.91,3.17,45.88-9.15,92.2-20.27,136.15l51.32,14.08c2.79-13.08,7.16-25.85,10.12-38.89,11.39-50.01,31.35-177.39-34.14-197.69ZM297.67,1173.97c-.96-26.6,8.81-128.96,25.61-147.1,4.4-4.75,7.47-2.65,9.46,3.1,8.6,25.13-7.16,84.19-16.38,109.79-4.89,13.59-11.67,26.33-17.14,39.61-2.72.38-1.48-3.51-1.55-5.4Z"/>
    <path class="cls-2" d="M1254.38,984.88c-6.54-52.97,10.08-134.5-15.49-179-38.75-67.46-176.77-66.12-228.43-15.52-3.89,3.82-20.93,24.44-18.55,29.01,1.86,3.58,43.78,21.82,50.66,24.88,14.73-47.32,106.69-55.69,135.33-22.51,6.09,7.02,14.97,30.15,10.19,38.1-2.34,3.86-20.38,7.85-25.37,8.85-54.69,10.87-160.59-1.27-180.35,68.59-14.11,49.87,18.14,91.79,66.42,102.26,52.42,11.36,113.68.31,145.48-45.88,2.2,0,3.86,17.66,4.99,21.44,2.1,7.05,7.26,13.01,8.23,20.55h62.26c-7.71-15.83-13.18-33.18-15.39-50.77ZM1190.4,930.6c0,29.98-26.23,53.97-53.21,61.95-29.32,8.67-92.31,8.95-93.13-33.9-1-50.59,81.84-43.61,115.85-49.22,10.39-1.69,20-6.61,30.49-7.61v28.77Z"/>
    <path class="cls-2" d="M1409.86,1301.59v49.05h-239.76c.98-16.85-3.79-35.36,4.99-50.7l155.53-185.63h-152.63v-49.05h231.87c-1.03,16.86,3.79,35.36-5.04,50.7l-155.49,185.63h160.53Z"/>
  </g>
</svg>